# xmcd
#
# Track frame offsets:
#  150
#  4694
#  14607
#  28000
#  46585
#  58652
#  77069
#  89061
#  101314
#  112778
#  123295
#  137519
#  146425
#  161269
#
# Disc length: 2319 seconds
#
# Revision: 0
# Processed by: cddbd v1.5.2PL0 Copyright (c) Steve Scherf et al.
# Submitted via: AltoMP3_Maker 3.0
#
DISCID=a2090d0e
DTITLE=Rudi Buèar - Kambiament
DYEAR=1900
DGENRE=
TTITLE0=jintro (dukcija)
TTITLE1=storu si je lep vrt
TTITLE2=dajte, dajte
TTITLE3=morosa
TTITLE4=(j)one dvi naranæe
TTITLE5=l'anello che ti ho dato
TTITLE6=dove tu vai luigi
TTITLE7=na samanj
TTITLE8=starinski ples
TTITLE9=teresina - ciola bepi
TTITLE10=canto de strada
TTITLE11=3x7
TTITLE12=cara mama (ðegerz mud)
TTITLE13=ualke
EXTD=
EXTT0=
EXTT1=
EXTT2=
EXTT3=
EXTT4=
EXTT5=
EXTT6=
EXTT7=
EXTT8=
EXTT9=
EXTT10=
EXTT11=
EXTT12=
EXTT13=
PLAYORDER=
